<svg xmlns="http://www.w3.org/2000/svg" xmlns:xlink="http://www.w3.org/1999/xlink" version="1.1" x="0px" y="0px" viewBox="0 0 67 83.75" enable-background="new 0 0 67 67" xml:space="preserve"><g><path d="M61.2935486,45.7439804c1.6656036-0.76054,3.0575409-1.4754677,3.7381287-1.8337021   c0.0701447-0.0368996,0.1445236-0.0497742,0.2183228-0.0641899V12.6184483L50.5465584,6.5382886v11.7457752   c0,0.4345951-0.3525925,0.7871914-0.7871895,0.7871914c-0.4345932,0-0.7871895-0.3525963-0.7871895-0.7871914V6.5385451   L34.2871895,12.615757v23.4420967c0,0.4345932-0.3525963,0.7871895-0.7871895,0.7871895s-0.7871895-0.3525963-0.7871895-0.7871895   V12.6206903L18.0267944,6.5388012v7.1502457c0,0.4345951-0.3525944,0.7871904-0.7871895,0.7871904   s-0.7871895-0.3525953-0.7871895-0.7871904V6.538353L1.75,12.6184483v10.6220055   c0.5591304-0.4366455,1.2678449-0.9710484,2.1012235-1.5539455c0.3577204-0.2495842,0.8476644-0.1619473,1.0957112,0.1932106   c0.2490721,0.356184,0.1629729,0.8471527-0.1937227,1.0962238C3.323163,23.9771633,2.230655,24.8608932,1.75,25.2608318v35.1988907   l14.7024155-6.0703583V24.3145752c0-0.4345932,0.3525944-0.7871895,0.7871895-0.7871895s0.7871895,0.3525963,0.7871895,0.7871895   v30.0755577l14.6860161,6.0715752V47.4326477c0-0.434597,0.3525963-0.7871895,0.7871895-0.7871895   s0.7871895,0.3525925,0.7871895,0.7871895v13.024189l14.6849899-6.0673447v-2.5058403   c0-0.4345932,0.3525963-0.7871895,0.7871895-0.7871895c0.434597,0,0.7871895,0.3525963,0.7871895,0.7871895v2.5057106   L65.25,60.4597206V45.5713997c-0.774826,0.3992958-1.9465141,0.9857178-3.3025093,1.6044884   c-0.1065979,0.048687-0.2172966,0.0712357-0.3269691,0.0712357c-0.2982712,0-0.5842438-0.1706581-0.716465-0.4602203   C60.7236557,46.3912582,60.8979034,45.9243774,61.2935486,45.7439804z M21.0033569,22.3737621   c0.4274197-0.0871239,0.8425407,0.185524,0.9306889,0.6108932c0.2562466,1.2361336,0.3864193,2.6834164,0.3874454,4.3013573   l-0.7871914,0.0312634h-0.7871895c-0.0010242-1.5415821-0.1199226-2.881752-0.3546448-4.012825   C20.3043156,22.8785686,20.5779877,22.4619122,21.0033569,22.3737621z M22.0693436,31.5899334   c-0.2105942,1.9436169-0.3696957,2.7017155-0.5750179,4.1839962c-0.0553493,0.3935966-0.3925686,0.6780319-0.7789898,0.6780319   c-0.0358734,0-0.072773-0.0025635-0.1096725-0.0076904c-0.4304962-0.0599594-0.7308159-0.4576569-0.6713676-0.8886604   c0.1962013-1.3917007,0.3885975-2.4427681,0.5688686-4.1337738c0.0471497-0.4320335,0.4253693-0.7497787,0.8671379-0.6985302   C21.8028469,30.7694321,22.115469,31.1579018,22.0693436,31.5899334z M7.476603,19.4028378   c1.391932-0.7733536,2.718266-1.3811703,3.9390254-1.8070526c0.4120445-0.1434975,0.8599644,0.0743122,1.0024376,0.4848194   c0.1434975,0.4105072-0.0737991,0.8594513-0.4837942,1.0024376c-1.1367111,0.3956451-2.3789949,0.9665623-3.6930285,1.6963539   c-0.377491,0.2095394-0.8583226,0.0759716-1.0700865-0.3059597C6.9600096,20.0931664,7.0963326,19.6139851,7.476603,19.4028378z    M5.4184289,39.867218c-0.3074961,0.3074951-0.8056397,0.3074951-1.1131363,0   c-0.3074958-0.3074951-0.3074958-0.8056412,0-1.1131363l2.0704741-2.0704727c0.3074961-0.3074989,0.8056397-0.3074989,1.1131358,0   l2.1483731,2.1483727c0.3074961,0.3074951,0.3074961,0.8056374,0,1.1131363c-0.3076067,0.3076057-0.8056297,0.3075027-1.1131363,0   l-1.5918045-1.5918083L5.4184289,39.867218z M12.817811,50.3548851c-0.1537485,0.1537476-0.3546457,0.2306213-0.5565681,0.2306213   s-0.4028206-0.0768738-0.5565681-0.2306213l-1.5918055-1.5912933l-1.5128803,1.5133934   c-0.3074961,0.3074989-0.8056402,0.3074989-1.1131363,0c-0.3074961-0.3074951-0.3074961-0.8056374,0-1.1131363l2.0694494-2.0699615   c0.2951956-0.2951965,0.8179388-0.2951965,1.1131353,0l2.1483736,2.1478615   C13.1253071,49.5492439,13.1253071,50.04739,12.817811,50.3548851z M12.817811,29.5348358   c-0.3076067,0.3076057-0.8056297,0.3075047-1.1131363,0l-1.5918055-1.5912933l-1.5128803,1.5133934   c-0.3074961,0.307497-0.8056402,0.307497-1.1131363,0s-0.3074961-0.8056393,0-1.1131363l2.0694494-2.0699615   c0.2951956-0.2951965,0.8179388-0.2951965,1.1131353,0l2.1483736,2.1478615   C13.1253071,28.7291946,13.1253071,29.2273388,12.817811,29.5348358z M15.7451735,18.4137249   c-0.433569-0.0230618-0.7666903-0.3935947-0.7441406-0.8276768c0.0235748-0.4345951,0.4028206-0.7590027,0.8281898-0.7446537   c1.7506781,0.092762,3.1784849,0.7641277,4.2444715,1.9961624c0.2839222,0.3285084,0.2480469,0.8261395-0.0799484,1.1105747   c-0.3293819,0.2831306-0.8253422,0.2494602-1.1110859-0.0804615   C18.0964947,18.9595299,17.0704823,18.4839363,15.7451735,18.4137249z M20.1782436,44.8184166   c-0.4151211,0-0.7625904-0.3254318-0.785141-0.745163c-0.07621-1.4035339-0.0263481-2.902813,0.0758495-4.2936745   c0.0327988-0.4330559,0.4212685-0.7569504,0.8425388-0.7272263c0.433569,0.0317726,0.7595158,0.409481,0.7277412,0.8430519   c-0.099062,1.3528862-0.1453915,2.7400436-0.0737991,4.0937996c0.0235748,0.434082-0.3095455,0.804615-0.7441406,0.8281898   C20.2069416,44.8179054,20.1925926,44.8184166,20.1782436,44.8184166z M24.7312355,50.4076729   c-1.9978733,0.5522957-3.5148258-0.2072983-4.3859196-1.9454269c-0.1957722-0.3889809-0.0379238-0.8620148,0.3505459-1.0567627   c0.3884697-0.1962852,0.8620129-0.0368996,1.0567608,0.3505478c0.5518379,1.1006622,1.3282642,1.4749031,2.5583687,1.1346588   c0.4284439-0.116848,0.8527889,0.1306877,0.9686127,0.5483704C25.3954277,49.8582802,25.1504555,50.2918472,24.7312355,50.4076729z    M25.4056778,22.9564686c-0.307497-0.3069839-0.307497-0.8056412,0-1.1131363l2.0694485-2.0704746   c0.2951965-0.2951965,0.8179398-0.2951965,1.1131363,0l2.1483727,2.1483727c0.3074951,0.307497,0.3074951,0.8056412,0,1.1131363   c-0.1537476,0.1537476-0.3546467,0.2306213-0.5565681,0.2306213c-0.2019234,0-0.4028206-0.0768738-0.5565681-0.2306213   l-1.5918045-1.5912914l-1.5128822,1.5133934C26.2123413,23.2634506,25.7141972,23.2644768,25.4056778,22.9564686z    M31.7380466,45.1781883c-1.0803356,1.174633-2.1268482,2.1786079-3.1118603,2.983223   c-0.3401928,0.277153-0.8348522,0.2230492-1.1080112-0.1112099c-0.2746964-0.3367081-0.224472-0.8322906,0.1117229-1.1074982   c0.92659-0.7579765,1.9198017-1.7101898,2.949913-2.8305016c0.2941723-0.3203087,0.7923164-0.3392715,1.112112-0.0466385   C32.0117188,44.3602486,32.0322189,44.8578796,31.7380466,45.1781883z M56.9916801,16.9833565l2.0704727-2.0704746   c0.1475983-0.1475983,0.3474693-0.2306223,0.5565681-0.2306223s0.4089699,0.083024,0.5565681,0.2306223l2.1473465,2.1483727   c0.3074989,0.307497,0.3074989,0.8061523,0,1.1131363c-0.3062515,0.3062534-0.8043976,0.3087368-1.1131363,0l-1.5907784-1.5918045   l-1.5139046,1.5139046c-0.3074989,0.307497-0.8056412,0.307497-1.1131363,0   C56.6841812,17.7889957,56.6841812,17.2908516,56.9916801,16.9833565z M56.6257591,21.973505   c0.3187714-0.2972469,0.8148651-0.282383,1.1131363,0.0353622c1.1407166,1.2144432,1.4278641,2.8773594,1.2781563,4.5365925   c-0.0368996,0.4089699-0.3802681,0.7159538-0.7830887,0.7159538c-0.0235748,0-0.0481758-0.0010242-0.072773-0.0030746   c-0.4325447-0.039463-0.7513161-0.4222946-0.712368-0.8553524c0.108223-1.1795979-0.0464973-2.4532299-0.857914-3.3168583   C56.293663,22.7694073,56.3090363,22.2712631,56.6257591,21.973505z M54.6219101,33.8869286   c0.7461891-1.3032684,1.3550301-2.5358162,1.8111496-3.6643276c0.1639977-0.4028187,0.6201172-0.5960293,1.0249901-0.4351063   c0.4028168,0.1624603,0.5975647,0.6211414,0.4345932,1.0244751c-0.4817429,1.1941109-1.1223602,2.4922562-1.9034004,3.8570251   c-0.2176399,0.3801041-0.7013588,0.5064964-1.0741882,0.2921219C54.5368347,34.7453575,54.406662,34.2641258,54.6219101,33.8869286   z M48.9465561,21.4036121c1.4985313-0.609354,3.003212-0.9481125,4.3510704-0.9793758   c0.4550934,0.0194759,0.7953873,0.3341465,0.8056374,0.7687416c0.0102501,0.4351063-0.3341446,0.7953892-0.7687378,0.8056393   c-1.1592598,0.0266495-2.4712448,0.3254337-3.7955284,0.8635521c-0.0963478,0.0394611-0.1967964,0.0579109-0.2962227,0.0579109   c-0.3105698,0-0.6047401-0.185009-0.7287636-0.4909687C48.3500137,22.026804,48.5437355,21.5676098,48.9465561,21.4036121z    M50.5465584,27.9045925v7.323019c0,0.434597-0.3525925,0.7871933-0.7871895,0.7871933   c-0.4345932,0-0.7871895-0.3525963-0.7871895-0.7871933v-7.323019c0-0.4345932,0.3525963-0.7871895,0.7871895-0.7871895   C50.1939659,27.117403,50.5465584,27.4699993,50.5465584,27.9045925z M40.0014915,16.9833565l2.0694504-2.0704746   c0.2951965-0.2951965,0.8179398-0.2951965,1.1131363,0l2.1483727,2.1483727c0.3074951,0.307497,0.3074951,0.8056393,0,1.1131363   c-0.3076057,0.3076057-0.8056297,0.3075066-1.1131363,0l-1.5918045-1.5912933l-1.5128822,1.5133934   c-0.306469,0.3069839-0.804615,0.3080101-1.1131363,0C39.6939964,17.7895088,39.6939964,17.2908516,40.0014915,16.9833565z    M36.9736824,38.462986c-0.8066673,1.1956482-1.6440811,2.3564453-2.4907188,3.4485664   c-0.2628517,0.3394432-0.7565002,0.4091568-1.1039124,0.1399117c-0.3443947-0.2659836-0.4069214-0.76054-0.1404228-1.1044235   c0.8251152-1.0649605,1.6420288-2.1965485,2.4292183-3.364521c0.2418976-0.3592567,0.7328682-0.4556046,1.0926361-0.2126846   C37.1212807,37.6127586,37.2166023,38.1021881,36.9736824,38.462986z M38.5480614,35.2465744   c-0.1332474,0-0.2685471-0.0338249-0.3925705-0.1055717c-0.3761711-0.2172966-0.5053177-0.6985283-0.2880211-1.0752106   c0.7461891-1.2935371,1.3878326-2.5250568,1.9054527-3.6602306c0.180397-0.3956451,0.6467667-0.570406,1.0434341-0.3889828   c0.3956451,0.180397,0.5698929,0.6472797,0.3894958,1.0429249c-0.5391426,1.1802731-1.2033348,2.456892-1.9751511,3.793478   C39.0851555,35.1056404,38.8207092,35.2465744,38.5480614,35.2465744z M45.8592949,49.2806969   c-0.3076057,0.3076096-0.8056297,0.3075066-1.1131363,0l-1.5918045-1.5912895l-1.5139084,1.5133934   c-0.3074951,0.3074951-0.8056374,0.3074951-1.1131325,0c-0.3074989-0.3074989-0.3074989-0.8056412,0-1.1131363l2.0704727-2.0699615   c0.3074951-0.3074951,0.8056412-0.3074951,1.1131363,0l2.1483727,2.1478615   C46.16679,48.4750595,46.16679,48.9732018,45.8592949,49.2806969z M46.0735168,24.8332195   c-1.0895615,0.8148651-2.053051,1.7470894-2.8638153,2.7705402c-0.1557961,0.1957722-0.3853951,0.2982712-0.6180649,0.2982712   c-0.1711731,0-0.3433723-0.0553493-0.487896-0.1701488c-0.3402939-0.2700844-0.3976936-0.765152-0.1281242-1.1059608   c0.8948174-1.1300488,1.9567032-2.1575966,3.154911-3.0534363c0.3484955-0.2598343,0.8415146-0.1880856,1.1018639,0.1588726   C46.4927368,24.0793419,46.4220123,24.5728722,46.0735168,24.8332195z M50.2687874,49.4698105   c-0.2359276,0.3603096-0.7243195,0.4662247-1.0895615,0.2260094c-1.5624962-1.0248642-1.4242477-2.9814606-0.8609886-4.7544022   c0.132225-0.4130707,0.5729675-0.6421547,0.9891129-0.5114708c0.4140968,0.1317101,0.6426659,0.5745049,0.5114708,0.9891129   c-0.305233,0.9601517-0.6176758,2.4085732,0.2234459,2.9606743C50.4061356,48.6180458,50.5076103,49.105938,50.2687874,49.4698105z    M50.4389381,42.0617142c-0.3782234-0.214222-0.5104446-0.6944275-0.2962227-1.0726471   c0.6170425-1.0895615,1.3806572-2.3031464,2.2682953-3.6074448c0.2459984-0.3582306,0.7359428-0.4515038,1.0936623-0.2075577   c0.3597717,0.2449722,0.4530449,0.7344017,0.2080727,1.0941734c-0.8640633,1.2684212-1.6041069,2.4451065-2.2006493,3.4967422   C51.2982216,42.1434364,50.817131,42.2760239,50.4389381,42.0617142z M52.9388809,49.4216347   c-0.0850754-0.4263954,0.1906471-0.8410034,0.6170425-0.92659c1.1151848-0.2239571,2.4302444-0.6139641,3.9082756-1.159771   c0.4120445-0.1506729,0.8609886,0.0584221,1.0106354,0.4658546c0.1506729,0.4079475-0.0573997,0.8604774-0.4653435,1.0111504   c-1.5549049,0.5739937-2.9488869,0.9865494-4.1440239,1.2263985   C53.4276466,50.1245232,53.0222359,49.8384094,52.9388809,49.4216347z M62.3226357,53.9172287   c0.3074989,0.3074951,0.3074989,0.8056374,0,1.1131363c-0.1537476,0.1537476-0.3546448,0.2306213-0.5565681,0.2306213   c-0.2019196,0-0.4028168-0.0768738-0.5565681-0.2306213l-1.5907784-1.5912933l-1.5139046,1.5133934   c-0.3074989,0.3074951-0.8056412,0.3074951-1.1131363,0c-0.3074989-0.3074951-0.3074989-0.8056412,0-1.1131363l2.0704727-2.0699615   c0.3074951-0.3085213,0.8056412-0.3064728,1.1131363,0L62.3226357,53.9172287z M59.618721,38.3533096l-1.5139046,1.5139084   c-0.3074989,0.3074951-0.8056412,0.3074951-1.1131363,0c-0.3074989-0.3074951-0.3074989-0.8056412,0-1.1131363l2.0704727-2.0704727   c0.1475983-0.1475983,0.3474693-0.2306252,0.5565681-0.2306252s0.4089699,0.0830269,0.5565681,0.2306252l2.1473465,2.1483727   c0.3074989,0.3074951,0.3074989,0.8061523,0,1.1131363c-0.3062515,0.3062515-0.8043976,0.3087349-1.1131363,0L59.618721,38.3533096   z"/></g></svg>