<svg xmlns="http://www.w3.org/2000/svg" viewBox="0 0 32 40" x="0px" y="0px"><title>Artboard 8</title><g data-name="Layer 9"><path d="M27,10.84A1,1,0,0,0,26,10H19.61a8.39,8.39,0,0,0,1.05-3.34,4.66,4.66,0,1,0-9.32,0A8.35,8.35,0,0,0,12.39,10H6a1,1,0,0,0-1,.84l-3,18A1,1,0,0,0,3,30H29a1,1,0,0,0,1-1.16ZM23.13,22H17V19a1,1,0,0,0-1-1H11V12h2.4l.18.34.09.16c.08.14.15.28.23.41s.07.12.1.19l.2.34.1.18q.09.17.18.3l.09.16.16.26.07.13c.06.1.12.18.16.26l0,0,.1.16,0,0,.05.08a1,1,0,0,0,1.68,0s.23-.36.54-.88l0-.05.2-.34.07-.11.21-.37.09-.15.22-.41.09-.16c.09-.15.17-.3.25-.46L18.6,12H23ZM16,4a2.66,2.66,0,0,1,2.66,2.66c0,.28-.15,1.22-1.56,3.9l-.18.33c-.32.61-.64,1.19-.92,1.67-.28-.48-.6-1.05-.92-1.65l-.19-.37c-1.4-2.66-1.55-3.6-1.55-3.88A2.66,2.66,0,0,1,16,4ZM6.85,12H9v7a1,1,0,0,0,1,1h5v2H5.18Zm-2,12H15v4H4.18ZM17,28V24h7.14a1,1,0,0,0,.71-.3,1,1,0,0,0,.29-.71L25,12h.14l2.67,16ZM16,8.18a1.52,1.52,0,1,0-1.52-1.52A1.52,1.52,0,0,0,16,8.18Zm0-2a.48.48,0,1,1-.48.48A.49.49,0,0,1,16,6.18Z"/></g><text x="0" y="47" fill="#000000" font-size="5px" font-weight="bold" font-family="'Helvetica Neue', Helvetica, Arial-Unicode, Arial, Sans-serif">Created by Jejen Juliansyah Nur Agung</text><text x="0" y="52" fill="#000000" font-size="5px" font-weight="bold" font-family="'Helvetica Neue', Helvetica, Arial-Unicode, Arial, Sans-serif">from the Noun Project</text></svg>